# xmcd
#
# Track frame offsets:
#	182
#	12342
#	28317
#	44250
#	61490
#	72480
#	83175
#	98417
#	116752
#	128730
#
# Disc length: 1890 seconds
#
# Revision: 2
# Processed by: cddbd v1.5.2PL0 Copyright (c) Steve Scherf et al.
# Submitted via: audiograbber 1.83.01
#
DISCID=8507600a
DTITLE=Wall, Chris - No sweat
DYEAR=1991
DGENRE=Country
TTITLE0=Hangin' out
TTITLE1=Fine line
TTITLE2=Once before I go
TTITLE3=Boots
TTITLE4=No sweat
TTITLE5=Faded blue
TTITLE6=Rodeo cowboy
TTITLE7=I'll take the whiskey (you take the wheel)
TTITLE8=Better things to do
TTITLE9=I'm not drinkin' anymore
EXTD=
EXTT0=
EXTT1=
EXTT2=
EXTT3=
EXTT4=
EXTT5=
EXTT6=
EXTT7=
EXTT8=
EXTT9=
PLAYORDER=
